<?xml version="1.0" encoding="UTF-8" standalone="no"?>
<svg
   width="16"
   height="16"
   fill="currentColor"
   class="bi bi-bricks"
   viewBox="0 0 16 16"
   version="1.1"
   id="svg4"
   sodipodi:docname="bricks.svg"
   xmlns:inkscape="http://www.inkscape.org/namespaces/inkscape"
   xmlns:sodipodi="http://sodipodi.sourceforge.net/DTD/sodipodi-0.dtd"
   xmlns="http://www.w3.org/2000/svg"
   xmlns:svg="http://www.w3.org/2000/svg">
  <defs
     id="defs8" />
  <sodipodi:namedview
     id="namedview6"
     pagecolor="#ffffff"
     bordercolor="#000000"
     borderopacity="0.25"
     inkscape:showpageshadow="2"
     inkscape:pageopacity="0.0"
     inkscape:pagecheckerboard="0"
     inkscape:deskcolor="#d1d1d1"
     showgrid="false" />
  <path
     d="M 0,0.5 A 0.5,0.5 0 0 1 0.5,0 h 15 A 0.5,0.5 0 0 1 16,0.5 v 3 A 0.5,0.5 0 0 1 15.5,4 H 14 v 2 h 1.5 A 0.5,0.5 0 0 1 16,6.5 v 3 A 0.5,0.5 0 0 1 15.5,10 H 14 v 2 h 1.5 a 0.5,0.5 0 0 1 0.5,0.5 v 3 A 0.5,0.5 0 0 1 15.5,16 H 0.5 A 0.5,0.5 0 0 1 0,15.5 v -3 A 0.5,0.5 0 0 1 0.5,12 H 2 V 10 H 0.5 A 0.5,0.5 0 0 1 0,9.5 v -3 A 0.5,0.5 0 0 1 0.5,6 H 2 V 4 H 0.5 A 0.5,0.5 0 0 1 0,3.5 Z M 3,4 V 6 H 7.5 V 4 Z M 8.5,4 V 6 H 13 V 4 Z M 3,10 v 2 h 4.5 v -2 z m 5.5,0 v 2 H 13 V 10 Z M 1,1 V 3 H 4.5 V 1 Z m 4.5,0 v 2 h 5 V 1 Z m 6,0 V 3 H 15 V 1 Z M 1,7 V 9 H 4.5 V 7 Z m 4.5,0 v 2 h 5 V 7 Z m 6,0 V 9 H 15 V 7 Z M 1,13 v 2 h 3.5 v -2 z m 4.5,0 v 2 h 5 v -2 z m 6,0 v 2 H 15 v -2 z"
     id="path2" />
  <path
     style="fill:#cc1709;fill-opacity:1;stroke-width:0.138897;stroke-linejoin:round;paint-order:markers fill stroke"
     d="M 0.34124875,15.936836 C 0.28349896,15.913048 0.18899931,15.84111 0.13124952,15.776974 0.03252403,15.667332 0.02525178,15.573634 0.00954603,14.208909 -0.00940148,12.562496 0.00897796,12.349954 0.18556827,12.173363 0.3067332,12.052199 0.3345654,12.048706 1.1788593,12.048706 H 2.0474925 V 11.029572 10.010439 L 1.2181396,9.992701 C 0.25890552,9.9721856 0.14707078,9.9324244 0.05162492,9.5779656 0.01429471,9.439332 -2.3903162e-4,8.8320006 0.01018871,7.8464417 L 0.0262499,6.328447 0.17167719,6.1829627 0.31710449,6.0374778 1.1822985,6.0208197 2.0474925,6.0041615 V 4.9839485 3.9637355 H 1.1889118 c -0.83136771,0 -0.86285134,-0.00396 -0.99332367,-0.1248757 C 0.00730935,3.664369 -0.00970013,3.4773869 0.00954603,1.7937336 L 0.0262499,0.33247915 0.19770254,0.17936453 0.36915518,0.0262499 H 8.0110874 15.65302 l 0.15346,0.15346098 0.153461,0.15346097 V 2.0125372 3.6919026 L 15.798414,3.827819 c -0.158975,0.1337688 -0.174736,0.1359165 -0.997497,0.1359165 h -0.835968 v 1.0237462 1.0237462 h 0.790104 c 0.834746,0 1.036226,0.045448 1.150833,0.2595911 0.03378,0.063113 0.05405,0.7183234 0.05405,1.7465185 0,1.8364516 0.0012,1.8298561 -0.355921,1.9290429 -0.10743,0.029836 -0.520169,0.05438 -0.917199,0.05454 l -0.721872,2.93e-4 v 1.023747 1.023746 h 0.868633 c 0.852253,0 0.871063,0.0024 0.997496,0.128863 l 0.128863,0.128863 v 1.679453 1.679452 l -0.126699,0.147303 -0.1267,0.147301 -7.6301465,0.01007 c -4.196581,0.0055 -7.67739696,-0.0094 -7.73514675,-0.03318 z M 4.5149834,14.017449 V 12.993702 H 2.7562399 0.99749634 v 1.023747 1.023746 H 2.7562399 4.5149834 Z m 5.9849776,0 V 12.993702 H 7.9799707 5.45998 v 1.023747 1.023746 h 2.5199907 2.5199903 z m 4.514984,0 v -1.023747 h -1.758744 -1.758743 v 1.023747 1.023746 h 1.758743 1.758744 z M 7.5074725,11.02496 V 10.001213 H 5.2499807 2.992489 v 1.023747 1.023746 h 2.2574917 2.2574918 z m 5.5124795,0 V 10.001213 H 10.736211 8.452469 v 1.023747 1.023746 h 2.283742 2.283741 z M 4.5149834,7.9799707 V 6.9562245 H 2.7562399 0.99749634 V 7.9799707 9.003717 H 2.7562399 4.5149834 Z m 5.9849776,0 V 6.9562245 H 7.9799707 5.45998 V 7.9799707 9.003717 h 2.5199907 2.5199903 z m 4.514984,0 V 6.9562245 H 13.256201 11.497458 V 7.9799707 9.003717 h 1.758743 1.758744 z M 7.5074725,4.9874817 V 3.9637355 H 5.2499807 2.992489 v 1.0237462 1.0237462 h 2.2574917 2.2574918 z m 5.5124795,0 V 3.9637355 H 10.736211 8.452469 v 1.0237462 1.0237462 h 2.283742 2.283741 z M 4.5149834,1.9949927 V 0.97124644 H 2.7562399 0.99749634 V 1.9949927 3.0187389 H 2.7562399 4.5149834 Z m 5.9849776,0 V 0.97124644 H 7.9799707 5.45998 V 1.9949927 3.0187389 h 2.5199907 2.5199903 z m 4.514984,0 V 0.97124644 H 13.256201 11.497458 V 1.9949927 3.0187389 h 1.758743 1.758744 z"
     id="path375" />
  <path
     style="fill:#cc1709;fill-opacity:1;stroke-width:0.138897;stroke-linejoin:round;paint-order:markers fill stroke"
     d="M 0.22605176,15.80705 0.07874971,15.680409 0.0645303,14.087682 c -0.01283193,-1.437314 -0.0051478,-1.610658 0.07874971,-1.776477 0.0867903,-0.171538 0.11390431,-0.185988 0.40796797,-0.217427 0.17324936,-0.01852 0.58077912,-0.03624 0.90562172,-0.03937 l 0.5906228,-0.0057 V 11.032663 10.01662 L 1.6458229,9.9826672 C 1.4249046,9.9639925 1.0815845,9.9487135 0.88288947,9.9487135 0.44820918,9.9487135 0.17630875,9.8475217 0.10466566,9.6590862 0.07428486,9.5791784 0.05249981,8.8587109 0.05249981,7.9338754 V 6.3458712 L 0.19974701,6.2047995 C 0.33957895,6.070832 0.37356118,6.0637278 0.87454326,6.0637278 c 0.29015194,0 0.67276404,-0.015178 0.85024914,-0.033729 L 2.0474925,5.9962702 V 4.9882274 3.9801847 L 1.2066034,3.9470798 C 0.74411442,3.9288722 0.32135093,3.8902324 0.267129,3.8612137 0.07811927,3.7600588 0.05249981,3.5281893 0.05249981,1.9187075 V 0.36184619 L 0.22562355,0.19404805 0.3987473,0.0262499 h 7.6127989 7.6127988 l 0.167798,0.17312375 0.167798,0.17312374 -3.67e-4,1.65124451 -3.68e-4,1.6512446 -0.176952,0.1204807 c -0.159498,0.1085965 -0.257856,0.1236402 -0.997138,0.1525116 l -0.820167,0.032031 v 1.015609 1.015609 l 0.354373,0.00255 c 0.194906,0.0014 0.586174,0.021235 0.869487,0.044072 0.781597,0.063004 0.725391,-0.084934 0.725789,1.9103237 3.68e-4,1.7382969 -0.01202,1.8402111 -0.233473,1.9241095 -0.06321,0.023948 -0.475212,0.06093 -0.915554,0.082181 l -0.800622,0.038639 v 1.009746 1.009747 l 0.872395,0.03093 c 0.808539,0.02867 0.881552,0.03953 0.997497,0.148456 l 0.1251,0.117527 v 1.66102 1.66102 l -0.147247,0.141072 -0.147247,0.14107 H 8.0194002 0.37335382 Z M 4.5149834,14.017449 V 12.993702 H 2.7562399 0.99749634 v 1.023747 1.023746 H 2.7562399 4.5149834 Z m 5.9849776,0 V 12.993702 H 7.9799707 5.45998 v 1.023747 1.023746 h 2.5199907 2.5199903 z m 4.514984,0 v -1.023747 h -1.758744 -1.758743 v 1.023747 1.023746 h 1.758743 1.758744 z M 7.5074725,11.02496 V 10.001213 H 5.2499807 2.992489 v 1.023747 1.023746 h 2.2574917 2.2574918 z m 5.5124795,0 V 10.001213 H 10.736211 8.452469 v 1.023747 1.023746 h 2.283742 2.283741 z M 4.5149834,7.9799707 V 6.9562245 H 2.7562399 0.99749634 V 7.9799707 9.003717 H 2.7562399 4.5149834 Z m 5.9849776,0 V 6.9562245 H 7.9799707 5.45998 V 7.9799707 9.003717 h 2.5199907 2.5199903 z m 4.514984,0 V 6.9562245 H 13.256201 11.497458 V 7.9799707 9.003717 h 1.758743 1.758744 z M 7.5074725,4.9874817 V 3.9637355 H 5.2499807 2.992489 v 1.0237462 1.0237462 h 2.2574917 2.2574918 z m 5.5124795,0 V 3.9637355 H 10.736211 8.452469 v 1.0237462 1.0237462 h 2.283742 2.283741 z M 4.5149834,1.9949927 V 0.97124644 H 2.7562399 0.99749634 V 1.9949927 3.0187389 H 2.7562399 4.5149834 Z m 5.9849776,0 V 0.97124644 H 7.9799707 5.45998 V 1.9949927 3.0187389 h 2.5199907 2.5199903 z m 4.514984,0 V 0.97124644 H 13.256201 11.497458 V 1.9949927 3.0187389 h 1.758743 1.758744 z"
     id="path3554" />
</svg>
