<?xml version="1.0" encoding="UTF-8" standalone="no"?>
<svg
   width="16"
   height="16"
   fill="currentColor"
   class="bi bi-rocket-takeoff"
   viewBox="0 0 16 16"
   version="1.1"
   id="svg8"
   sodipodi:docname="rocket-takeoff.svg"
   xmlns:inkscape="http://www.inkscape.org/namespaces/inkscape"
   xmlns:sodipodi="http://sodipodi.sourceforge.net/DTD/sodipodi-0.dtd"
   xmlns="http://www.w3.org/2000/svg"
   xmlns:svg="http://www.w3.org/2000/svg">
  <defs
     id="defs12" />
  <sodipodi:namedview
     id="namedview10"
     pagecolor="#ffffff"
     bordercolor="#000000"
     borderopacity="0.25"
     inkscape:showpageshadow="2"
     inkscape:pageopacity="0.0"
     inkscape:pagecheckerboard="0"
     inkscape:deskcolor="#d1d1d1"
     showgrid="false" />
  <path
     d="m 9.752,6.193 c 0.599,0.6 1.73,0.437 2.528,-0.362 C 13.078,5.032 13.24,3.899 12.642,3.3 12.043,2.7 10.912,2.862 10.114,3.661 9.316,4.461 9.154,5.594 9.752,6.193"
     id="path2" />
  <path
     d="m 15.811,3.312 c -0.363,1.534 -1.334,3.626 -3.64,6.218 l -0.24,2.408 a 2.56,2.56 0 0 1 -0.732,1.526 L 8.817,15.85 A 0.51,0.51 0 0 1 7.95,15.416 L 8.22,13.517 C 8.26,13.237 8.207,12.924 8.089,12.561 A 9,9 0 0 0 7.84,11.904 L 7.758,11.702 C 6.943,11.505 6.18,11.04 5.567,10.425 4.953,9.81 4.488,9.046 4.292,8.23 L 4.089,8.147 A 10,10 0 0 0 3.434,7.899 C 3.071,7.78 2.759,7.727 2.479,7.767 L 0.583,8.037 A 0.51,0.51 0 0 1 0.15,7.17 L 2.532,4.784 C 2.942,4.374 3.479,4.114 4.056,4.05 h 0.006 l 2.4,-0.238 c 2.543,-2.262 4.625,-3.23 6.161,-3.604 0.89,-0.217 1.59,-0.232 2.08,-0.188 0.244,0.023 0.435,0.06 0.57,0.093 q 0.1,0.026 0.16,0.045 c 0.184,0.06 0.279,0.13 0.351,0.295 l 0.029,0.073 a 3.5,3.5 0 0 1 0.157,0.721 c 0.055,0.485 0.051,1.178 -0.159,2.065 m -4.828,7.475 0.04,-0.04 -0.107,1.081 a 1.54,1.54 0 0 1 -0.44,0.913 l -1.298,1.3 0.054,-0.38 C 9.304,13.155 9.198,12.668 9.06,12.243 a 9,9 0 0 0 -0.164,-0.45 c 0.738,-0.065 1.462,-0.38 2.087,-1.006 M 5.205,5 C 4.58,5.626 4.265,6.351 4.201,7.09 A 9,9 0 0 0 3.751,6.926 C 3.327,6.788 2.841,6.682 2.335,6.754 l -0.38,0.054 1.3,-1.3 C 3.5,5.262 3.821,5.107 4.165,5.068 L 5.245,4.961 Z M 14.611,1.039 C 14.231,1.005 13.644,1.012 12.865,1.202 11.307,1.582 8.948,2.698 5.928,5.723 5.308,6.343 5.129,7.063 5.241,7.774 5.348,8.45 5.724,9.136 6.289,9.702 c 0.564,0.565 1.25,0.941 1.924,1.049 0.71,0.112 1.429,-0.067 2.048,-0.688 C 13.34,6.98 14.453,4.619 14.817,3.076 15,2.305 14.997,1.731 14.955,1.363 A 3,3 0 0 0 14.91,1.08 3,3 0 0 0 14.61,1.039 Z"
     id="path4" />
  <path
     d="M 7.009,12.139 A 7.6,7.6 0 0 1 5.205,10.787 7.6,7.6 0 0 1 3.794,8.86 C 2.692,9.852 1.829,13.914 1.955,14.04 2.08,14.166 5.891,13.144 7.009,12.138 Z"
     id="path6" />
  <path
     style="fill:#ffcc00;stroke-width:0.0982151;stroke-linejoin:round;paint-order:markers fill stroke"
     d="M 1.9799694,13.793593 C 2.0839649,12.798618 2.691816,10.782084 3.1836329,9.800464 3.4166058,9.335472 3.7506464,8.8624126 3.7973067,8.9313954 c 0.00567,0.00838 0.1002195,0.1655884 0.2101106,0.3493471 0.3392021,0.5672101 0.6963118,1.0192505 1.20379,1.5237955 0.5170659,0.514077 0.9441356,0.854067 1.456423,1.159457 l 0.3141635,0.187283 -0.3076021,0.203425 C 6.3084581,12.596572 5.8979345,12.805512 5.3331543,13.037238 4.2228016,13.492809 2.4823597,14.013921 2.071171,14.013921 H 1.9569406 Z"
     id="path310" />
  <path
     style="fill:#ffcc00;stroke-width:0.0982151;stroke-linejoin:round;paint-order:markers fill stroke"
     d="m 8.221149,15.912277 c -0.1616465,-0.09858 -0.2397105,-0.237176 -0.2397105,-0.425603 0,-0.0898 0.058469,-0.568778 0.1299304,-1.0644 0.071462,-0.495622 0.1299304,-1.004753 0.1299304,-1.131403 0,-0.286384 -0.094314,-0.661267 -0.3008746,-1.195929 L 7.7809548,11.682169 7.5469208,11.618819 C 7.20719,11.526858 6.5571824,11.195374 6.1965943,10.930194 5.5818071,10.478073 4.9652251,9.7572206 4.6368122,9.1066387 4.576712,8.9875812 4.4795664,8.7441745 4.4209329,8.5657351 4.3143803,8.2414634 4.3142255,8.2412496 4.1153997,8.1426101 4.0059902,8.0883311 3.7327146,7.9823187 3.5081206,7.9070274 2.9131503,7.7075735 2.7484551,7.7057771 1.5063462,7.8851935 L 0.46976895,8.0349219 0.31176609,7.9650298 C 0.05709419,7.8523764 -0.04436611,7.5573075 0.08628454,7.3092796 0.11740693,7.2501966 0.74135124,6.6069754 1.4728275,5.8798987 2.9009815,4.4603348 3.0069751,4.3744059 3.5580371,4.1894203 3.7850346,4.1132199 4.0869082,4.0702983 5.1574263,3.9620121 L 6.477006,3.8285327 6.9415194,3.4330643 C 9.2747742,1.4466214 11.569202,0.28603257 13.62413,0.05280435 c 0.674404,-0.0765429 1.556436,0.0037749 1.916187,0.17448797 0.17254,0.0818752 0.283014,0.31404886 0.368778,0.77502788 0.09443,0.5075643 0.0599,1.4786186 -0.07456,2.0968311 -0.404976,1.8618993 -1.524069,3.8890039 -3.294666,5.9678961 L 12.152751,9.5215658 12.05068,10.570528 c -0.173707,1.785165 -0.238327,2.059549 -0.6011,2.552342 -0.228388,0.310243 -2.628881,2.728037 -2.7794584,2.799491 -0.1638805,0.07777 -0.3103068,0.07448 -0.4489726,-0.01008 z m 0.9614277,-5.186901 c 0.5576601,-0.143871 1.0067263,-0.504388 2.0265363,-1.6269296 2.330677,-2.565463 3.625464,-4.9575428 3.772033,-6.968719 0.02778,-0.3812259 -0.0045,-0.9485094 -0.05906,-1.0368539 -0.0257,-0.041638 -0.154791,-0.056202 -0.584901,-0.065989 C 13.244441,1.0020195 12.236826,1.2670516 10.895596,1.9321222 9.3962579,2.6755931 7.8941337,3.7883112 6.2618382,5.364639 5.7028343,5.904476 5.4632935,6.2264769 5.3142162,6.6384725 c -0.084104,0.232434 -0.096525,0.3255651 -0.097415,0.7304371 -0.00121,0.5481277 0.053385,0.7858365 0.2946613,1.2830753 0.4655859,0.9595125 1.3781565,1.7451071 2.3666777,2.0373761 0.3776557,0.111659 0.9499876,0.127461 1.3044403,0.03602 z"
     id="path312" />
  <path
     style="fill:#ffcc00;stroke-width:0.0982151;stroke-linejoin:round;paint-order:markers fill stroke"
     d="M 10.455703,6.5128491 C 10.023293,6.4412896 9.6518979,6.1409371 9.501238,5.7409594 9.4351335,5.5654627 9.4248699,5.473889 9.4382146,5.1786543 9.4651625,4.5824667 9.6635924,4.1653422 10.153301,3.6754527 c 0.475142,-0.4753168 0.983084,-0.7043685 1.558996,-0.7030146 0.28146,6.616e-4 0.367569,0.016202 0.546463,0.098623 0.762613,0.3513539 0.940025,1.3099019 0.410644,2.2186919 -0.171609,0.294602 -0.625434,0.75501 -0.908514,0.9216918 -0.419497,0.2470066 -0.926464,0.3640795 -1.305187,0.3014043 z"
     id="path314" />
</svg>
